<svg class="icon" viewBox="0 0 1024 1024" xmlns="http://www.w3.org/2000/svg" width="200" height="200"><defs><style/></defs><path d="M512 298.666667a128 128 0 1 0 128 128 128 128 0 0 0-128-128z m0 170.666666a42.666667 42.666667 0 1 1 42.666667-42.666666 42.666667 42.666667 0 0 1-42.666667 42.666666z"></path><path d="M512 42.666667a384 384 0 0 0-384 384c0 170.666667 165.546667 341.333333 298.666667 469.333333 32 31.146667 61.866667 59.306667 85.333333 85.333333 25.173333-25.173333 55.466667-53.76 85.333333-85.333333 131.413333-128 298.666667-298.666667 298.666667-469.333333a384 384 0 0 0-384-384z m28.16 783.786666l-23.466667 22.613334-4.693333 4.266666-27.733333-26.453333C298.666667 651.52 213.333333 531.2 213.333333 421.973333A296.106667 296.106667 0 0 1 512 128a296.106667 296.106667 0 0 1 298.666667 293.973333c0 109.226667-85.333333 229.546667-270.506667 404.48z"></path></svg>
